<svg width="35" height="35" viewBox="0 0 35 35" fill="none" xmlns="http://www.w3.org/2000/svg">
<path fill-rule="evenodd" clip-rule="evenodd" d="M15.8889 0.777771C24.1732 0.777771 30.8889 7.4935 30.8889 15.7778C30.8889 19.3191 29.6617 22.5737 27.6094 25.1397L33.7341 31.2659C34.385 31.9168 34.385 32.9721 33.7341 33.623C33.1333 34.2238 32.1879 34.27 31.5341 33.7616L31.3771 33.623L25.2509 27.4983C22.6849 29.5506 19.4302 30.7778 15.8889 30.7778C7.60464 30.7778 0.888916 24.062 0.888916 15.7778C0.888916 7.4935 7.60464 0.777771 15.8889 0.777771ZM15.8889 4.1111C9.44559 4.1111 4.22225 9.33445 4.22225 15.7778C4.22225 22.2211 9.44559 27.4444 15.8889 27.4444C22.3322 27.4444 27.5556 22.2211 27.5556 15.7778C27.5556 9.33445 22.3322 4.1111 15.8889 4.1111Z" fill="#00704A"/>
</svg>
